<svg xmlns="http://www.w3.org/2000/svg" viewBox="0 0 278.9 208"><defs><style>.cls-1{fill:#0398d9;}.cls-2{fill:#727377;}.cls-3{fill:#91d6f5;}.cls-4{fill:#0298da;}.cls-5{fill:#91d6f6;}.cls-6{fill:#0598d9;}.cls-7{fill:#717276;}.cls-8{fill:#737377;}.cls-9{fill:#727376;}.cls-10{fill:#2998c7;}</style></defs><title>Recurso 7</title><g id="Capa_2" data-name="Capa 2"><g id="Capa_1-2" data-name="Capa 1"><path class="cls-1" d="M67.6,76.6v.4c-.4.3-.2.7-.3,1.1a8.1,8.1,0,0,0,0,2.9v2a11.5,11.5,0,0,0-.1,2.8h.2v.2c-.1.4-.3.8.1,1.2v.2a.6.6,0,0,0-.2.6,11.1,11.1,0,0,0,.3,1.5c.2.5,0,1.1.4,1.6v.2a1.1,1.1,0,0,0-.1.9,13.8,13.8,0,0,0,.7,2.3c.3.7,0,1.6.8,2.1h0a1.8,1.8,0,0,0,.2,1.4,6.7,6.7,0,0,0,.4.9c.3.4.3.9.8,1.1h0c.1.5,0,.9.5,1.2h0c0,.3-.2.4-.5.4h0a4.4,4.4,0,0,0-1.3-2.2h-.1a1.6,1.6,0,0,0-.7-1.3h0a4,4,0,0,0-1.1-2.2h0a1,1,0,0,0,0-.7,12.2,12.2,0,0,1-.9-2.3,1.6,1.6,0,0,0-.7-1.1h0a1.3,1.3,0,0,0-.2-1c-.3-.4-.1-.9-.3-1.3a8.6,8.6,0,0,1-.5-1.2c0-.2-.1-.4-.3-.4a39.6,39.6,0,0,1-1.3-7.1,50.7,50.7,0,0,1-.2-7.9,70.9,70.9,0,0,1,1.7-12,85.5,85.5,0,0,1,6.2-18,78.9,78.9,0,0,1,6.8-11.6A76.1,76.1,0,0,1,89.2,18.7a78.9,78.9,0,0,1,11.4-8.5,90.9,90.9,0,0,1,16.7-8.1,33,33,0,0,1,6.9-2c.2,0,.4,0,.5-.2H128l1.9.5c4.8,1.3,6.6,6.3,3.7,9.9-1.7,2.1-4.1,3.1-6.8,3.8a76,76,0,0,0-14.8,5.2,83.3,83.3,0,0,0-13.6,8A82,82,0,0,0,85.2,39,75.9,75.9,0,0,0,74.4,54.5a73.3,73.3,0,0,0-4.2,9.9c-.2.1-.2.2-.3.4s-.2,1.3-.6,1.9a11.9,11.9,0,0,0-.7,2.7,38,38,0,0,0-.9,4.9A4.2,4.2,0,0,0,67.6,76.6Zm36.8-66.1a1.8,1.8,0,0,0,1.1-.2,53.3,53.3,0,0,1,7.9-2.6,28.9,28.9,0,0,1,9.6-.8,27.4,27.4,0,0,0,4.5.3,5.5,5.5,0,0,0,2.8-.9,2.1,2.1,0,0,0,.5-3.2,3.9,3.9,0,0,0-2.3-1.3,15.2,15.2,0,0,0-6.5.4,37.7,37.7,0,0,0-5.5,1.8A54.8,54.8,0,0,0,104.4,10.5Z"/><path class="cls-2" d="M278.9,172.8c-.3.6-.3,1.2-.6,1.8a7.9,7.9,0,0,1-5.4,4.1,12.6,12.6,0,0,1-9.5-1.1,7.8,7.8,0,0,1-2.7-2.5c-.2-.3-.1-.4.1-.5l2.7-1.4c.4-.2.5-.1.6.2a5.5,5.5,0,0,0,2.6,2.5,4.2,4.2,0,0,0,3.9-.2,2.3,2.3,0,0,0,.5-3.8,9.8,9.8,0,0,0-2.6-1.6l-4.3-2.1a5.8,5.8,0,0,1-2.9-3.2c-1.1-3.1.4-6.4,3.6-8s8.9-1.3,11.8,1.2a11.5,11.5,0,0,1,1.2,1.4c.3.4.2.6-.2.8l-1.8,1.1c-.4.3-.6.3-.9-.2a4.9,4.9,0,0,0-4.2-2.7c-2-.1-3.6,1.1-3.5,2.8a2.4,2.4,0,0,0,1.3,1.8,34.4,34.4,0,0,0,4.4,2.1,18.6,18.6,0,0,1,3.5,1.8,5.5,5.5,0,0,1,2.3,3.4v2Z"/><path class="cls-3" d="M50.2,208h0Z"/><path class="cls-4" d="M133,121h.1c0,.2,0,.4.2.4s1.2.7,1.9.9,1.1.8,1.8.6h0c0,.3.3.4.6.5l4,1.4a12.7,12.7,0,0,0,4.2.9h0c.5.3,1.1.7,1.8.4h.3c.1.2.1.4.4.4l2,.3a2.8,2.8,0,0,0,1.8.1h.3a1.9,1.9,0,0,0,1.8.2h.3a.4.4,0,0,0,.4.3c1.9.1,3.7.3,5.6.3,4.4,0,8.7.1,13.1-.2l7-.7,5.5-.8c.4-.1,1,0,1.2-.5h0c.9.3,1.7-.5,2.6-.2h.2c.2-.3.5-.3.8-.3l1.7-.4,3.1-.9c2.3-.6,4.5-1.6,6.8-2.3a.3.3,0,0,0,.2-.3h.4c.2.2.5,0,.7-.1l1.2-.5a1.6,1.6,0,0,0,1.1-.7h0a2.7,2.7,0,0,0,1.4-.3,7.6,7.6,0,0,1,1.8-1c1.3-.5,2.4-1.3,3.6-1.9l3.3-1.9c.5-.3,1.1-.5,1.3-1.1h0a9.3,9.3,0,0,0,2.6-1.6s0-.2,0-.2h0c.4,0,.6-.1.7-.5h.2a1.4,1.4,0,0,0,1.3-1h0a1.5,1.5,0,0,0,1.2-1h0c.7-.1.9-.6,1.3-.9s.4-.7,1-.4h0v.5h0a3.2,3.2,0,0,0-1.4,1.9h0c-.4-.1-.4.2-.4.5a13.2,13.2,0,0,0-2.2,2.3s0,.1,0,.2h0c-.5.2-.9.4-.9.9h0c-.5.1-1,.3-.8.9a45.4,45.4,0,0,1-3.9,3.8,80.9,80.9,0,0,1-10.1,7.7,101,101,0,0,1-14.1,7.5,113.7,113.7,0,0,1-14.5,5.2,117.8,117.8,0,0,1-18.1,3.7,110.1,110.1,0,0,1-16,.8,96.4,96.4,0,0,1-14.1-1.3,76.9,76.9,0,0,1-14.9-4.1,61.2,61.2,0,0,1-17.7-10.4,57.4,57.4,0,0,1-14.3-18.6,46.8,46.8,0,0,1-4-12.1,40.4,40.4,0,0,1-.6-11.2A43.7,43.7,0,0,1,88,61.8a58.6,58.6,0,0,1,17.4-14,76.1,76.1,0,0,1,17.2-6.7,97.9,97.9,0,0,1,12-2.3,78.8,78.8,0,0,1,12.4-.7,57,57,0,0,1,21.3,4.6,58,58,0,0,1,15,9.6,20.9,20.9,0,0,1,5.6,7.2c2.8,6.3.7,12.4-5.7,16.2a16.8,16.8,0,0,1-10.3,2.1,18.5,18.5,0,0,1-9.6-3.6L160.9,72A27.6,27.6,0,0,0,147,66.3a37.2,37.2,0,0,0-8.2-.2,39.8,39.8,0,0,0-9.3,1.9,36.4,36.4,0,0,0-9.4,4.6c-5,3.5-8.5,7.8-9.8,13.5a18.1,18.1,0,0,0,.2,8.7,26,26,0,0,0,2.7,6.4l.2.5c-.2.1-.2.3-.1.4a2.1,2.1,0,0,1,.6,1c.1.3.3.3.6.4h0c0,.8.7,1.3,1.2,1.9h.1a3.8,3.8,0,0,0,1.3,1.9h.1a3.2,3.2,0,0,0,1.5,1.9h0c0,.5.2.9.8,1h0c0,.6.3.9.9,1h0c0,.4.3.6.7.7h0c0,.2-.1.4.1.5a14.6,14.6,0,0,1,1.9,1.9.7.7,0,0,0,.7.3h0a3.7,3.7,0,0,0,2.2,1.8h0c.3.7,1,1.1,1.6,1.5s.3.1.5,0h.2c-.1.4.3.5.6.7s1.1,1.1,2,1h0c.1.4.4.5.8.5h0c.1.2-.2.5.2.5Zm27.5-78h0c0,.3.3.3.5.4l3.5,2.1a29.6,29.6,0,0,1,7.6,6.6,22.1,22.1,0,0,1,4.2,9.2,10.3,10.3,0,0,0,1.9,4.4,4.9,4.9,0,0,0,8.1-5.2,21.9,21.9,0,0,0-4.8-6.7,39.5,39.5,0,0,0-12.7-8.1A45.6,45.6,0,0,0,160.6,42.9Z"/><path class="cls-5" d="M72,93.2a48.3,48.3,0,0,1-.7-10.1c.1-1.7.3-3.4.4-5.1s.4-2.7.6-4a37.1,37.1,0,0,1,.9-3.7,62.3,62.3,0,0,1,2.9-8c.7-1.7,1.7-3.3,2.6-4.9a63.1,63.1,0,0,1,4.1-6.2c1-1.4,2.2-2.8,3.4-4.1a71.4,71.4,0,0,1,5.7-5.7,74.6,74.6,0,0,1,9-6.9,79.1,79.1,0,0,1,7.8-4.5l5.3-2.6c3.1-1.4,6.2-2.6,9.3-3.7l6.6-2c3-.8,6-1.5,9.1-2l6.4-.8a93.4,93.4,0,0,1,12.4-.4,86.2,86.2,0,0,1,8.7.7c2.7.3,5.3.7,7.9,1.3l4.8,1.1,5.6,1.6q3.9,1.2,7.7,2.8a77.7,77.7,0,0,1,7.4,3.4,15.7,15.7,0,0,1,6.1,5.3,6.5,6.5,0,0,1-.2,7.6,8.2,8.2,0,0,1-4.6,3.5,12.4,12.4,0,0,1-6.3.2,18.5,18.5,0,0,1-5.7-2.6,76.7,76.7,0,0,0-6.8-3.7l-4.7-2.1-4.9-1.9c-2.4-.8-4.8-1.6-7.3-2.2s-5-1.1-7.5-1.5-5.2-.6-7.9-.8a62.3,62.3,0,0,0-8.4-.1,88.6,88.6,0,0,0-14.8,1.9,87.6,87.6,0,0,0-11.4,3.3c-2,.7-4,1.5-5.9,2.4a84.2,84.2,0,0,0-10.9,6.2,80.2,80.2,0,0,0-6.8,5.1,57.2,57.2,0,0,0-8.2,8.5,52.7,52.7,0,0,0-9.5,19.2,59.7,59.7,0,0,0-1.3,6.7,54.8,54.8,0,0,0-.7,8.3A1.3,1.3,0,0,1,72,93.2ZM182.5,24.6l.6.5,1.5.9a41.4,41.4,0,0,1,8.8,6.3,14.8,14.8,0,0,1,3.2,4.4,8.3,8.3,0,0,0,2.6,3.4,3,3,0,0,0,4.8-1.2,4.1,4.1,0,0,0-1-4.2,18.7,18.7,0,0,0-4.1-3.5,42.6,42.6,0,0,0-6.6-3.4,81.2,81.2,0,0,0-8-2.8A3.4,3.4,0,0,0,182.5,24.6Z"/><path class="cls-5" d="M232.8,96.1a14,14,0,0,1-2.3,3c-1.3,1.4-2.7,2.8-4.1,4.1A43,43,0,0,1,223,106c-2,1.5-4,2.9-6.1,4.3s-4.3,2.5-6.5,3.7-4.1,2-6.2,2.9-4.5,1.8-6.8,2.5-4.9,1.5-7.4,2.1-5.3,1.2-8.1,1.6l-7.5.8c-2.4.2-4.8.1-7.2.1a56.4,56.4,0,0,1-8-.8,74.3,74.3,0,0,1-8.8-2.1l-5-1.8a62.1,62.1,0,0,1-8-3.9,38.4,38.4,0,0,1-5.9-4.1,27.6,27.6,0,0,1-6.7-8,18.9,18.9,0,0,1-2-6,20.2,20.2,0,0,1,.1-6.3,18.1,18.1,0,0,1,8.1-12.6,21.6,21.6,0,0,1,8.1-3.1,23,23,0,0,1,12.2,1,14.8,14.8,0,0,1,4.8,2.8c1.8,1.7,2.7,4,1.5,6.3s-3.7,3.7-6.6,4.2a10.1,10.1,0,0,1-4.9-.5,7.5,7.5,0,0,0-5.5-.1,5.3,5.3,0,0,0-3,3.2,9.4,9.4,0,0,0-.5,2.9,8.7,8.7,0,0,0,.8,3.9,18.6,18.6,0,0,0,4.4,5.7,32,32,0,0,0,6.4,4.9,39.3,39.3,0,0,0,8.3,3.7,42.3,42.3,0,0,0,5.6,1.4,64.1,64.1,0,0,0,7.7,1h7.6c2.1,0,4.1-.3,6.2-.5s6.2-.9,9.3-1.5,3.7-.9,5.6-1.4a114.1,114.1,0,0,0,13.2-4.5c2.7-1.1,5.2-2.3,7.8-3.6s5-2.6,7.4-4.1,3-1.8,4.4-2.9ZM143.7,75.7c-1.4,0-2.7.3-4.1.4s-.3,0-.3.2.2.2.3.2a12.2,12.2,0,0,1,2.7.4,13.3,13.3,0,0,1,5.4,2.3,26.1,26.1,0,0,1,3.1,3.1,4.2,4.2,0,0,0,2.6,1.5,2.4,2.4,0,0,0,2.5-1.2,2.1,2.1,0,0,0-.1-2.4c-.8-1.3-2.3-1.9-3.6-2.6A18.3,18.3,0,0,0,143.7,75.7Z"/><path class="cls-6" d="M126.8,18.8l3.7-2.2a141.2,141.2,0,0,1,14.6-7.5,73.4,73.4,0,0,1,17.7-5.2,66.2,66.2,0,0,1,14.8-.6,20.5,20.5,0,0,1,5.9,1.2c4.9,1.9,4.2,7,1.8,9.2a8.9,8.9,0,0,1-9,1.9,69.9,69.9,0,0,0-13.3-2.5,64.3,64.3,0,0,0-14.9.5,122.2,122.2,0,0,0-16.4,3.8l-4.9,1.5ZM165.5,5.4a4,4,0,0,0,1.4.1,31.5,31.5,0,0,1,4.6.4,20,20,0,0,1,8.4,2.9,5.1,5.1,0,0,0,2.9.9,2,2,0,0,0,1.9-.9,1.6,1.6,0,0,0-.2-1.8,2.7,2.7,0,0,0-.8-.7,12.2,12.2,0,0,0-4.9-1.5,37.5,37.5,0,0,0-8.4-.1A27.7,27.7,0,0,0,165.5,5.4Z"/><path class="cls-3" d="M119.6,143.9l-4.3-.3-5.6-.6-3.8-.5c-2.1-.2-4.1-.6-6.1-1A82.8,82.8,0,0,1,89.5,139a61.2,61.2,0,0,1-11.1-4.8,59.5,59.5,0,0,1-8-5.4,17,17,0,0,1-4.2-4.5,4.1,4.1,0,0,1,.1-4.9,7.6,7.6,0,0,1,5.8-3.2,8.4,8.4,0,0,1,6.7,2.3,22.7,22.7,0,0,1,2.2,2.7,46.6,46.6,0,0,0,3.4,3.9,52.5,52.5,0,0,0,3.8,3.7,53.8,53.8,0,0,0,8,5.6,71.6,71.6,0,0,0,9.1,4.4c3.1,1.2,6.2,2.3,9.4,3.3l4.9,1.6Zm-39-10.6a1.4,1.4,0,0,0-.4-.6,26.4,26.4,0,0,1-4-3.4,15.6,15.6,0,0,1-4-6.5,4.3,4.3,0,0,0-1.5-2.2,2.2,2.2,0,0,0-2.9.1,2,2,0,0,0-.5,2.1,8.5,8.5,0,0,0,2.8,4,32.5,32.5,0,0,0,8.4,5.6A5.2,5.2,0,0,0,80.6,133.3Z"/><path class="cls-2" d="M88.8,167.5l1.4.4c1.8.6,3.4,1.4,4.2,3.1s0,5.5-2.9,6.7a11,11,0,0,1-4,.8H73.8c-.6,0-.5-.4-.5-.7q0-9.8,0-19.6c0-.6-.3-1.3.1-1.6s1.2-.1,1.9-.1H85.5a11.8,11.8,0,0,1,5.7,1.3c3,1.6,3.8,5.5,1.6,7.8a6.6,6.6,0,0,1-3.6,1.6A.4.4,0,0,0,88.8,167.5Zm-8.5,4.8c0,1.1,0,2.1,0,3.2s0,.5.4.5a23.3,23.3,0,0,0,3.2-.1c2.5-.4,3.4-1.4,3.4-3.6s-1.2-3.3-3.5-3.6H80.9c-.5,0-.7.1-.7.6S80.3,171.2,80.3,172.3Zm0-9.7q0,1.4,0,2.9c0,.2,0,.5.4.5a16.3,16.3,0,0,0,3.8-.3,2.6,2.6,0,0,0,2.1-1.9,4.6,4.6,0,0,0,.1-1.9,2.9,2.9,0,0,0-2.6-2.4,22.9,22.9,0,0,0-3.4-.1c-.4,0-.4.2-.4.5S80.3,161.6,80.3,162.6Z"/><path class="cls-2" d="M167.6,178.5H160a.6.6,0,0,1-.6-.4l-5.8-10.4c-.2-.3-.1-.4.3-.4h2.6c2.7-.3,4.1-1.9,3.8-4.3s-1.7-3.6-4.5-3.7h-2.5c-.4,0-.5.1-.5.5q0,8.9,0,17.8a1.6,1.6,0,0,0,0,.3c.1.6-.1.8-.8.7h-5.6c-.4,0-.6-.1-.6-.5q0-10.5,0-21c0-.4.2-.5.6-.5h11.6a12.3,12.3,0,0,1,7.3,2.2,5.5,5.5,0,0,1-1.4,9.6l-1.9.6c-.6.1-.5.3-.3.7l4.8,7.3Z"/><path class="cls-2" d="M246.6,178.5h-7.1a.6.6,0,0,1-.7-.5l-2.3-5.5c-.2-.5-.4-.6-1-.6h-7.3a.9.9,0,0,0-1,.6l-2.1,5.5a.6.6,0,0,1-.7.4H222c-.6,0-.5-.2-.4-.5l3.9-9.7,4.4-11a1,1,0,0,1,1.2-.8h5.5a.7.7,0,0,1,.8.5l8.1,19Zm-14.8-17.2-.2.2-2.8,7.4c-.1.3,0,.4.4.4h5.5c.5,0,.5-.2.3-.5l-1.9-4.4Z"/><path class="cls-2" d="M21.2,178.5H18.1a.7.7,0,0,1-.8-.5L15,172.5a.7.7,0,0,0-.8-.5H6.6a.7.7,0,0,0-.8.5l-2.2,5.5a.7.7,0,0,1-.8.5H.5c-.5,0-.5-.1-.4-.5l3.9-9.6,4.5-11.2a.9.9,0,0,1,1.1-.7H15a.9.9,0,0,1,1,.6l4,9.3,4.9,11.5c.2.5.1.7-.5.6H21.2Zm-10.8-9.2H13c.5,0,.6-.1.4-.5l-3-7.1c0-.1-.1-.3-.3-.3s-.2.2-.2.3l-2.7,7.1c-.2.4,0,.4.4.4Z"/><path class="cls-2" d="M196.6,156.1c4.4,0,7.9,1.3,10.4,4.4.3.4.3.6-.1.8l-2,1.3c-.6.5-.8.2-1.1-.3a7.5,7.5,0,0,0-2.8-2.7c-2.6-1.5-7.5-1.5-9.4,2.5a11.3,11.3,0,0,0-.1,10.2c1.4,2.9,4.2,4.3,7.7,3.9a7.1,7.1,0,0,0,4.7-2.8l1.1-1.5c.2-.3.3-.3.6-.1l2.1,1.2c.5.2.6.4.3.9a11.2,11.2,0,0,1-6.9,4.8,17.2,17.2,0,0,1-11.7-1,10.9,10.9,0,0,1-6.5-11.3c.7-5.5,5.8-9.6,11.9-10Z"/><path class="cls-2" d="M111.5,167.5c0-3.5,0-6.9,0-10.4,0-.5.2-.6.7-.6h14.7c.5,0,.7.1.7.6a9.6,9.6,0,0,0,0,1.7c0,.5-.2.6-.7.6h-7.5c-.6,0-.7.1-.7.6s0,3.5,0,5.3.2.6.7.6h7.2c.5,0,.6.1.6.5a16,16,0,0,0,0,1.9c0,.4-.1.5-.6.5h-7.2c-.5,0-.7.1-.7.6s0,3.8,0,5.7.2.6.7.6h8.1c.5,0,.7.1.7.6a18.3,18.3,0,0,0,0,1.9c0,.3-.1.4-.5.4H112c-.6,0-.5-.3-.5-.6Q111.5,172.7,111.5,167.5Z"/><path class="cls-7" d="M40.4,167.5c0-3.5,0-6.9,0-10.4,0-.4.1-.5.6-.5h5.9c.6,0,.7.2.7.6,0,5.9,0,11.8,0,17.7,0,.6.1.8.9.8h7.9c.5,0,.7.1.7.6a8.9,8.9,0,0,0,0,1.7c.1.5-.2.6-.7.6H41.1c-.6,0-.7-.2-.7-.7,0-3.5,0-6.9,0-10.4Z"/><path class="cls-8" d="M149.8,207.6h-5c-.3,0-.4-.2-.5-.3l-3.7-6.6c-.2-.4-.1-.4.3-.4a7.3,7.3,0,0,0,2.4-.3,2.1,2.1,0,0,0,1.5-1.4c.5-2.2-.4-3.6-2.9-3.8s-1.9-.1-1.9,1.6c0,3.6,0,7.1,0,10.7,0,.5-.1.6-.6.6h-3.4c-.5,0-.6-.1-.6-.6q0-6.8,0-13.6c0-.3,0-.6.5-.5,2.8.1,5.7-.1,8.5.1a7.3,7.3,0,0,1,3.7,1.2,3.7,3.7,0,0,1,1.7,3.9c-.3,1.5-1.4,2.3-2.9,2.8s-1,.3-.5,1.1Z"/><path class="cls-8" d="M198.8,200.2h2c1.6-.2,2.4-1,2.5-2.3a2.5,2.5,0,0,0-2.3-2.9,13.3,13.3,0,0,0-2.4-.1c-.5,0-.3.3-.3.5,0,1.9,0,3.8,0,5.7s0,4.1,0,6.1c0,.5-.2.6-.7.6h-3.3c-.5,0-.6-.1-.6-.5,0-4.6,0-9.1,0-13.7,0-.3,0-.5.4-.5,2.9.1,5.7-.1,8.6.1a6.5,6.5,0,0,1,4.1,1.6c2.2,2.2,1.4,5.3-1.7,6.3-.3.1-.9.1-1,.4s.3.6.5.9l3.2,4.9c.3.4.2.5-.3.5h-4.2c-.2,0-.5,0-.6-.2Z"/><path class="cls-9" d="M119.1,207.6h-4.9a.5.5,0,0,1-.5-.3l-4-7.1h1.9a2.6,2.6,0,0,0,2.5-1.4,2.8,2.8,0,0,0-.5-3.1,3.2,3.2,0,0,0-2-.8c-2.2-.3-2.3-.2-2.3,1.7,0,3.5,0,6.9,0,10.4,0,.6-.2.8-.8.7h-3.2c-.4,0-.6-.1-.6-.5q0-6.8,0-13.7c0-.3,0-.5.5-.5,2.8.1,5.6-.1,8.4.1a7.3,7.3,0,0,1,3.8,1.2A3.7,3.7,0,0,1,116,201c-1.1.3-1.1.3-.5,1.2Z"/><path class="cls-8" d="M229.3,203.2h-2.4a.6.6,0,0,0-.7.4l-1.3,3.4a.6.6,0,0,1-.8.5h-1.2c-.5,0-.5-.1-.4-.5l1.8-4.5,3.7-9.2a.7.7,0,0,1,.8-.5h3.3a.9.9,0,0,1,1,.6l3.9,9.2,1.9,4.4c.2.4.1.5-.4.5h-4a.7.7,0,0,1-.7-.5l-1.4-3.3a.8.8,0,0,0-.9-.6Zm0-7h-.2l-1.9,4.9c-.1.2-.1.4.3.4h3.5c.3,0,.4-.1.3-.4Z"/><path class="cls-8" d="M79.7,203.2H77.5a.8.8,0,0,0-.9.6l-1.3,3.3a.7.7,0,0,1-.8.5H73.3c-.5,0-.5-.1-.4-.5l3-7.4,2.5-6.3a.7.7,0,0,1,.7-.5h3.5a.6.6,0,0,1,.7.4l5.9,13.8c.2.4,0,.5-.4.5H85a.7.7,0,0,1-.7-.5l-1.4-3.4a.7.7,0,0,0-.8-.5Zm0-7h-.2l-1.9,4.9c-.1.3,0,.4.3.4h3.5c.4,0,.5-.1.3-.4Z"/><path class="cls-8" d="M52.2,207.9h-2a9.4,9.4,0,0,1-6.4-2.9c-3.6-4-1.5-10.3,3.9-11.8a10.7,10.7,0,0,1,8.5.6,7.9,7.9,0,0,1,2.1,1.8c.2.3.1.4-.1.5l-1.4.9c-.3.2-.4.2-.6-.1a5.1,5.1,0,0,0-1.5-1.7,4.6,4.6,0,0,0-6.7,1.5,7.3,7.3,0,0,0,.2,7.2,4.9,4.9,0,0,0,7.6.7,5.4,5.4,0,0,0,1-1.2c.2-.3.3-.5.7-.2l.8.4c.8.4.8.5.3,1.2A8.4,8.4,0,0,1,52.2,207.9Z"/><path class="cls-9" d="M166,200.2c0-2.2,0-4.5,0-6.7,0-.4.1-.6.6-.6h9.5c.4,0,.6.1.6.5s0,1.4-1.5,1.4h-3.9c-.4,0-.6.1-.6.5s0,2.3,0,3.4.1.5.5.5h4.6c.4,0,.5.1.5.5s0,1.4-1.5,1.4h-3.5c-.4,0-.6.1-.6.5s0,2.3,0,3.5.1.6.7.6h4.9c.5,0,.7.1.7.6s0,1.3-1.5,1.3H167c-1,0-1,0-1-.9S166,202.4,166,200.2Z"/><path class="cls-10" d="M187.3,125.6c-.3.5-.8.4-1.2.5l-5.5.8-7,.7c-4.4.3-8.7.2-13.1.2-1.9,0-3.7-.2-5.6-.3a.4.4,0,0,1-.4-.3,107.2,107.2,0,0,0,13.6.5l7.9-.4q5.3-.5,10.5-1.5Z"/><path class="cls-10" d="M202.7,121.1a.3.3,0,0,1-.2.3c-2.3.7-4.4,1.6-6.8,2.3l-3.1.9-1.7.4c-.3,0-.6.1-.8.3h-.2c-.9-.3-1.7.5-2.6.2l5.6-1.4a81.7,81.7,0,0,0,9.3-3Z"/><path class="cls-10" d="M217.4,113.6c-.2.6-.8.8-1.3,1.1l-3.3,1.9c-1.2.6-2.3,1.3-3.6,1.9a7.6,7.6,0,0,0-1.8,1,2.7,2.7,0,0,1-1.4.3l4.5-2.2c2.3-1.1,4.5-2.5,6.7-3.8Z"/><path class="cls-10" d="M67.6,76.6a4.2,4.2,0,0,1,.1-2.3,38,38,0,0,1,.9-4.9,11.9,11.9,0,0,1,.7-2.7c.3-.6.2-1.3.6-1.9s.1-.3.3-.4c-.5,1.8-1,3.6-1.5,5.5A65.5,65.5,0,0,0,67.6,76.6Z"/><path class="cls-10" d="M145.8,125.7a12.7,12.7,0,0,1-4.2-.9l-4-1.4c-.3-.1-.5-.2-.6-.5l3.4,1.2C142.3,124.8,144.1,125.2,145.8,125.7Z"/><path class="cls-10" d="M225.7,107.9c-.5-.2-.7.2-1,.4s-.7.9-1.3.9l2.8-2.5,1.5-1.2a21.7,21.7,0,0,1-2,2.8v-.5c.2-.1.3-.2.2-.4h-.2C225.4,107.6,225.8,107.8,225.7,107.9Z"/><path class="cls-10" d="M70.9,101.8c.3,0,.5,0,.5-.4l2.3,4.3c0,.1,0,.2,0,.2h0A38.7,38.7,0,0,1,70.9,101.8Z"/><path class="cls-10" d="M69.5,96.8c-.8-.5-.5-1.4-.8-2.1a13.8,13.8,0,0,1-.7-2.3,1.1,1.1,0,0,1,.1-.9Z"/><path class="cls-10" d="M137.1,122.9c-.8.2-1.2-.4-1.8-.6s-1.2-.7-1.9-.9-.2-.2-.2-.4Z"/><path class="cls-10" d="M66.1,91.7a1.6,1.6,0,0,1,.7,1.1,12.2,12.2,0,0,0,.9,2.3,1,1,0,0,1,0,.7A22.7,22.7,0,0,1,66.1,91.7Z"/><path class="cls-10" d="M70.9,100.2c-.5-.2-.5-.8-.8-1.1a6.7,6.7,0,0,1-.4-.9,1.8,1.8,0,0,1-.2-1.4Z"/><path class="cls-10" d="M124.1,114.6a.7.7,0,0,1-.7-.3,14.6,14.6,0,0,0-1.9-1.9c-.2-.1-.1-.3-.1-.5Z"/><path class="cls-10" d="M152.1,126.8a2.8,2.8,0,0,1-1.8-.1l-2-.3c-.3,0-.3-.2-.4-.4Z"/><path class="cls-10" d="M64.9,87.8c.2.1.3.2.3.4a8.6,8.6,0,0,0,.5,1.2c.2.4,0,.9.3,1.3a1.3,1.3,0,0,1,.2,1A20,20,0,0,1,64.9,87.8Z"/><path class="cls-10" d="M221.7,113.3c0-.1-.1-.2,0-.2a13.2,13.2,0,0,1,2.2-2.3A16.9,16.9,0,0,1,221.7,113.3Z"/><path class="cls-10" d="M131,119.8c-.9.1-1.4-.6-2-1s-.7-.2-.6-.7Z"/><path class="cls-10" d="M68.1,91.2c-.4-.5-.3-1.1-.4-1.6a11.1,11.1,0,0,1-.3-1.5.6.6,0,0,1,.2-.6Z"/><path class="cls-10" d="M67.3,81a8.1,8.1,0,0,1,0-2.9c.1-.4-.2-.8.3-1.1Z"/><path class="cls-10" d="M205.9,119.7a1.6,1.6,0,0,1-1.1.7l-1.2.5c-.2.1-.4.3-.7.1Z"/><path class="cls-10" d="M126.2,116.4a3.7,3.7,0,0,1-2.2-1.8Z"/><path class="cls-10" d="M128.3,118c-.2.1-.4.1-.5,0s-1.3-.9-1.6-1.5Z"/><path class="cls-10" d="M220,111.8c0,.1,0,.2,0,.2a9.3,9.3,0,0,1-2.6,1.6Z"/><path class="cls-10" d="M118.9,109.2a3.2,3.2,0,0,1-1.5-1.9A12,12,0,0,1,118.9,109.2Z"/><path class="cls-10" d="M117.4,107.3h-.1a3.8,3.8,0,0,1-1.3-1.9A15,15,0,0,1,117.4,107.3Z"/><path class="cls-10" d="M116,105.4h-.1c-.5-.6-1.2-1.1-1.2-1.9A14.2,14.2,0,0,1,116,105.4Z"/><path class="cls-10" d="M69.6,99.5a4.4,4.4,0,0,1,1.3,2.2A13.9,13.9,0,0,1,69.6,99.5Z"/><path class="cls-10" d="M224.3,110.3a3.2,3.2,0,0,1,1.4-1.9A11.7,11.7,0,0,1,224.3,110.3Z"/><path class="cls-10" d="M114.6,103.4c-.3,0-.5-.1-.6-.4a2.1,2.1,0,0,0-.6-1c-.1-.1-.1-.3.1-.4A9.3,9.3,0,0,1,114.6,103.4Z"/><path class="cls-10" d="M67.7,95.8A4,4,0,0,1,68.8,98,10.1,10.1,0,0,1,67.7,95.8Z"/><path class="cls-10" d="M67.4,85.9h-.2a11.5,11.5,0,0,1,.1-2.8Z"/><path class="cls-10" d="M147.6,126.1c-.7.3-1.2-.1-1.8-.4Z"/><path class="cls-10" d="M222.1,110.2a1.4,1.4,0,0,1-1.3,1A5.1,5.1,0,0,1,222.1,110.2Z"/><path class="cls-10" d="M120.6,111.2c-.6-.1-.9-.4-.9-1A4.2,4.2,0,0,1,120.6,111.2Z"/><path class="cls-10" d="M154.2,127.1a1.9,1.9,0,0,1-1.8-.2Z"/><path class="cls-10" d="M223.4,109.2a1.5,1.5,0,0,1-1.2,1A4.5,4.5,0,0,1,223.4,109.2Z"/><path class="cls-10" d="M119.7,110.2c-.6-.1-.8-.5-.8-1A3.1,3.1,0,0,1,119.7,110.2Z"/><path class="cls-10" d="M133,121h-.9c-.4-.1-.1-.4-.2-.5Z"/><path class="cls-10" d="M220,115.1c-.1-.6.3-.7.8-.9A2.6,2.6,0,0,1,220,115.1Z"/><path class="cls-10" d="M68.8,98a1.6,1.6,0,0,1,.7,1.3A4.3,4.3,0,0,1,68.8,98Z"/><path class="cls-10" d="M220.8,114.3c0-.5.4-.7.9-.9A3.3,3.3,0,0,1,220.8,114.3Z"/><path class="cls-10" d="M71.4,101.4c-.5-.3-.5-.8-.5-1.2A3.7,3.7,0,0,1,71.4,101.4Z"/><path class="cls-10" d="M67.6,87.3c-.4-.4-.2-.8-.1-1.2Z"/><path class="cls-10" d="M121.3,111.9c-.4-.1-.7-.3-.7-.7A2.2,2.2,0,0,1,121.3,111.9Z"/><path class="cls-10" d="M131.9,120.3c-.4.1-.7-.1-.8-.5Z"/><path class="cls-10" d="M220.7,111.3c0,.4-.3.5-.7.5Z"/><path class="cls-10" d="M223.8,110.8c0-.3,0-.5.4-.5Z"/><path class="cls-10" d="M73.7,106h.1c-.1.1-.1,0-.1,0Z"/><path class="cls-10" d="M202.8,121h0Z"/><path class="cls-10" d="M128.4,118.1h0Z"/><path class="cls-4" d="M225.7,107.9c.1-.2-.3-.3,0-.5h.2c.1.2,0,.3-.2.4Z"/></g></g></svg>