<svg xmlns="http://www.w3.org/2000/svg" viewBox="0 0 201.4 146.2"><defs><style>.cls-1{fill:#fff;}</style></defs><title>Recurso 13</title><g id="Capa_2" data-name="Capa 2"><g id="Capa_1-2" data-name="Capa 1"><path class="cls-1" d="M48.8,53.8v.3c-.3.2-.1.5-.2.8a5.6,5.6,0,0,0,0,2.1v1.4a7.9,7.9,0,0,0,0,2h.1v.2c-.1.3-.2.6.1.9v.2a.4.4,0,0,0-.1.4,7.6,7.6,0,0,0,.2,1.1c.1.4,0,.8.3,1.1v.2a.8.8,0,0,0,0,.7,9.5,9.5,0,0,0,.5,1.6c.2.5,0,1.1.6,1.5h0a1.2,1.2,0,0,0,.1,1,4.7,4.7,0,0,0,.3.6c.2.3.2.6.6.8h0c0,.3,0,.7.4.9h0c0,.2-.1.3-.4.3h0a3.1,3.1,0,0,0-.9-1.5h0a1.1,1.1,0,0,0-.5-.9h0a2.8,2.8,0,0,0-.8-1.6h0a.7.7,0,0,0,0-.5,8.5,8.5,0,0,1-.7-1.6,1.1,1.1,0,0,0-.5-.8h0a.9.9,0,0,0-.1-.7c-.2-.3-.1-.6-.2-.9a5.9,5.9,0,0,1-.4-.9c0-.1-.1-.3-.2-.3a27.2,27.2,0,0,1-.9-5,34.7,34.7,0,0,1-.1-5.5A48.6,48.6,0,0,1,47,42.8a59.1,59.1,0,0,1,4.5-12.6A55.2,55.2,0,0,1,56.4,22a54,54,0,0,1,8-8.8,56.9,56.9,0,0,1,8.2-6A66.4,66.4,0,0,1,84.7,1.5a24.3,24.3,0,0,1,5-1.4c.1,0,.3,0,.3-.1h2.4l1.4.3c3.4.9,4.7,4.4,2.6,7a8.4,8.4,0,0,1-4.9,2.7,55.9,55.9,0,0,0-10.7,3.7A60.5,60.5,0,0,0,71,19.2a58.7,58.7,0,0,0-9.5,8.2,53.4,53.4,0,0,0-7.8,10.8,50.8,50.8,0,0,0-3.1,7c-.1,0-.2.2-.2.3s-.2.9-.4,1.3a8.2,8.2,0,0,0-.5,1.9,26.1,26.1,0,0,0-.7,3.5A2.9,2.9,0,0,0,48.8,53.8ZM75.4,7.3a1.4,1.4,0,0,0,.8-.1,39.2,39.2,0,0,1,5.7-1.8,21.4,21.4,0,0,1,6.9-.6A20.3,20.3,0,0,0,92,5a4.1,4.1,0,0,0,2-.6,1.4,1.4,0,0,0,.4-2.2,2.9,2.9,0,0,0-1.7-.9,11.2,11.2,0,0,0-4.7.3,27.8,27.8,0,0,0-4,1.2A39.9,39.9,0,0,0,75.4,7.3Z"/><path class="cls-1" d="M201.4,121.5c-.2.4-.2.9-.5,1.3a5.7,5.7,0,0,1-3.9,2.9,9.3,9.3,0,0,1-6.9-.7,5.6,5.6,0,0,1-1.9-1.7c-.1-.2-.1-.3.1-.4l2-1c.3-.1.3-.1.5.1a3.9,3.9,0,0,0,1.9,1.7,3.1,3.1,0,0,0,2.8-.1,1.6,1.6,0,0,0,.3-2.7,7.1,7.1,0,0,0-1.9-1.1l-3.1-1.5a4.2,4.2,0,0,1-2.1-2.2,4.5,4.5,0,0,1,2.6-5.6,8.2,8.2,0,0,1,8.5.9l.9,1c.2.3.1.4-.2.5l-1.3.8c-.3.2-.4.2-.6-.1a3.5,3.5,0,0,0-3.1-1.9c-1.5-.1-2.6.8-2.5,2a1.7,1.7,0,0,0,.9,1.3,25.1,25.1,0,0,0,3.2,1.5,13.6,13.6,0,0,1,2.5,1.3,3.8,3.8,0,0,1,1.7,2.4h.1Z"/><path class="cls-1" d="M36.2,146.2h0Z"/><path class="cls-1" d="M96.1,85h.1c0,.1,0,.3.2.3s.9.5,1.4.6.8.6,1.3.4h0c0,.2.2.3.4.3l2.9,1a9.4,9.4,0,0,0,3,.6h0c.4.2.8.5,1.3.3h.2c.1.1.1.3.3.3l1.5.2a2.1,2.1,0,0,0,1.3.1h.2a1.4,1.4,0,0,0,1.3.2h.2c0,.1.1.2.3.2l4,.2c3.2,0,6.3,0,9.5-.1l5.1-.5,3.9-.6c.3-.1.7,0,.9-.3h0c.6.2,1.2-.3,1.9-.1h.2c.1-.2.3-.2.5-.2l1.2-.3,2.3-.6c1.7-.4,3.2-1.1,4.9-1.6a.2.2,0,0,0,.2-.2h.3c.2.2.3,0,.5,0l.8-.3a1.2,1.2,0,0,0,.8-.5h0a2,2,0,0,0,1-.2l1.3-.7,2.6-1.3,2.4-1.4c.3-.2.8-.4.9-.8h0a6.7,6.7,0,0,0,1.9-1.1s0-.1,0-.2h0c.3,0,.5-.1.5-.3h.2a1,1,0,0,0,.9-.7h0a1.1,1.1,0,0,0,.9-.7h0c.5,0,.7-.4,1-.6s.3-.5.7-.3h0v.3h0a2.2,2.2,0,0,0-1,1.3h0c-.3,0-.3.1-.3.3a9.4,9.4,0,0,0-1.6,1.6s0,.1,0,.2h0c-.3.1-.6.3-.6.7h0c-.3.1-.7.2-.6.6a32.4,32.4,0,0,1-2.8,2.7,58.3,58.3,0,0,1-7.3,5.4,73.6,73.6,0,0,1-10.2,5.3,83.6,83.6,0,0,1-10.5,3.7,87.1,87.1,0,0,1-13.1,2.6,81.6,81.6,0,0,1-11.5.6,71.4,71.4,0,0,1-10.1-.9,56.7,56.7,0,0,1-10.8-2.9A44.5,44.5,0,0,1,69.7,90,40.5,40.5,0,0,1,59.4,76.9a32.3,32.3,0,0,1-2.9-8.5,27.7,27.7,0,0,1-.4-7.9,30.3,30.3,0,0,1,7.4-17.1,42.1,42.1,0,0,1,12.6-9.9,55.8,55.8,0,0,1,12.4-4.7,72.4,72.4,0,0,1,8.7-1.6,58.4,58.4,0,0,1,9-.5,40.5,40.5,0,0,1,26.2,10,14.8,14.8,0,0,1,4.1,5.1c2,4.4.5,8.7-4.1,11.4a12.4,12.4,0,0,1-7.4,1.5,13.6,13.6,0,0,1-7-2.5l-1.9-1.6a20.2,20.2,0,0,0-10-4,27.6,27.6,0,0,0-5.9-.1,29.5,29.5,0,0,0-6.7,1.3A26.6,26.6,0,0,0,86.7,51c-3.6,2.5-6.1,5.5-7.1,9.5a12.4,12.4,0,0,0,.2,6.1,18,18,0,0,0,2,4.5l.2.3c-.1.1-.1.2,0,.3a1.5,1.5,0,0,1,.4.7c.1.2.2.2.4.3h0c0,.6.5.9.9,1.4h.1a2.7,2.7,0,0,0,.9,1.3h.1a2.3,2.3,0,0,0,1.1,1.4h0c0,.3.1.6.6.7h0c0,.4.2.6.6.7h0c0,.3.2.4.5.5h0c0,.1,0,.3.1.4a10.4,10.4,0,0,1,1.4,1.3.5.5,0,0,0,.5.2h0a2.6,2.6,0,0,0,1.6,1.3h0c.2.5.7.7,1.1,1.1h.5c-.1.3.3.3.4.5s.8.8,1.4.7h0c.1.3.3.4.6.3h0c.1.1-.1.3.2.4Zm19.9-54.9h0c0,.2.2.2.3.3l2.5,1.4a21.2,21.2,0,0,1,5.5,4.6,15.4,15.4,0,0,1,3,6.5,7.1,7.1,0,0,0,1.4,3.1,3.5,3.5,0,0,0,5.5,0,3.3,3.3,0,0,0,.4-3.7,15.4,15.4,0,0,0-3.5-4.7,28.6,28.6,0,0,0-9.1-5.7A33.6,33.6,0,0,0,115.9,30.2Z"/><path class="cls-1" d="M52,65.5a33.1,33.1,0,0,1-.5-7.1c0-1.2.2-2.4.3-3.6s.3-1.9.5-2.8a25.5,25.5,0,0,1,.6-2.6A43,43,0,0,1,55,43.8c.5-1.2,1.2-2.3,1.8-3.5a44.3,44.3,0,0,1,3-4.4c.8-1,1.6-2,2.5-2.9a50.9,50.9,0,0,1,4.1-4,53.7,53.7,0,0,1,6.5-4.9A57.5,57.5,0,0,1,78.4,21l3.9-1.8c2.2-1,4.4-1.8,6.8-2.6l4.7-1.4c2.2-.6,4.4-1,6.6-1.4l4.6-.6a69.3,69.3,0,0,1,9-.3c2.1,0,4.2.2,6.3.5l5.7.9,3.5.8,4,1.1,5.5,1.9a56.8,56.8,0,0,1,5.3,2.4,11.3,11.3,0,0,1,4.4,3.7,4.5,4.5,0,0,1-.1,5.3,5.9,5.9,0,0,1-3.3,2.4,9.2,9.2,0,0,1-4.5.2,13.6,13.6,0,0,1-4.1-1.9q-2.4-1.4-4.9-2.6l-3.4-1.5-3.6-1.3-5.3-1.5L114,22.4l-5.7-.6a46.2,46.2,0,0,0-6-.1A65.6,65.6,0,0,0,91.6,23a64.6,64.6,0,0,0-8.2,2.3l-4.3,1.7a61.3,61.3,0,0,0-7.9,4.3A57.8,57.8,0,0,0,66.3,35,40.7,40.7,0,0,0,60.4,41a37.2,37.2,0,0,0-3.7,5.6,36.8,36.8,0,0,0-3.1,7.9,41,41,0,0,0-1,4.7,37.5,37.5,0,0,0-.5,5.8A.9.9,0,0,1,52,65.5Zm79.7-48.3.5.4,1.1.6a29.9,29.9,0,0,1,6.4,4.4,10.5,10.5,0,0,1,2.3,3.1,5.9,5.9,0,0,0,1.8,2.4,2.2,2.2,0,0,0,3.5-.9,2.9,2.9,0,0,0-.8-2.9,13.4,13.4,0,0,0-3-2.4,31.1,31.1,0,0,0-4.7-2.4,59.7,59.7,0,0,0-5.8-2A2.5,2.5,0,0,0,131.7,17.3Z"/><path class="cls-1" d="M168.1,67.6a9.9,9.9,0,0,1-1.7,2.1l-3,2.9-2.4,2c-1.4,1-2.9,2.1-4.4,3L152,80.1l-4.5,2.1-4.9,1.8c-1.7.6-3.5,1.1-5.3,1.5s-3.9.9-5.8,1.1L126,87h-5.2a41.8,41.8,0,0,1-5.8-.6,54.9,54.9,0,0,1-6.4-1.5l-3.6-1.2A45.3,45.3,0,0,1,99.3,81,27.7,27.7,0,0,1,95,78.1a19.5,19.5,0,0,1-4.8-5.7,13,13,0,0,1-1.4-4.2,13.8,13.8,0,0,1,.1-4.5,12.7,12.7,0,0,1,1.4-4.2,12.9,12.9,0,0,1,4.4-4.6,15.9,15.9,0,0,1,5.9-2.2,17,17,0,0,1,8.8.7,10.8,10.8,0,0,1,3.5,2,3.5,3.5,0,0,1,1.1,4.5c-.9,1.8-2.6,2.6-4.8,2.9a7.5,7.5,0,0,1-3.5-.4,5.6,5.6,0,0,0-3.9,0,3.8,3.8,0,0,0-2.1,2.3,6.5,6.5,0,0,0-.4,2,6,6,0,0,0,.6,2.7,13.1,13.1,0,0,0,3.2,4,23,23,0,0,0,4.6,3.4,28.8,28.8,0,0,0,6,2.6,31.2,31.2,0,0,0,4,1,47.5,47.5,0,0,0,5.6.7h5.5l4.5-.4c2.3-.2,4.5-.7,6.7-1.1l4-1a83.9,83.9,0,0,0,9.5-3.2c1.9-.8,3.8-1.6,5.6-2.5s3.6-1.8,5.3-2.9l3.1-2ZM103.7,53.2c-1,0-2,.2-3,.3s-.2,0-.2.2.1.2.3.2a9.1,9.1,0,0,1,2,.3,9.7,9.7,0,0,1,3.9,1.6,18.6,18.6,0,0,1,2.2,2.1,3.1,3.1,0,0,0,1.8,1,1.7,1.7,0,0,0,1.8-.8,1.5,1.5,0,0,0-.1-1.7,6.8,6.8,0,0,0-2.6-1.8A13.5,13.5,0,0,0,103.7,53.2Z"/><path class="cls-1" d="M91.6,13.2l2.7-1.5a103,103,0,0,1,10.6-5.2,54.1,54.1,0,0,1,12.8-3.7,49.1,49.1,0,0,1,10.7-.4,15.1,15.1,0,0,1,4.3.8,3.7,3.7,0,0,1,1.3,6.5,6.6,6.6,0,0,1-6.5,1.3,51.7,51.7,0,0,0-9.6-1.7,47.7,47.7,0,0,0-10.8.3,90.3,90.3,0,0,0-11.8,2.7l-3.6,1Zm27.9-9.4h1l3.3.2a14.7,14.7,0,0,1,6.1,2.1,3.8,3.8,0,0,0,2.1.6,1.5,1.5,0,0,0,1.3-.6,1.1,1.1,0,0,0-.1-1.3l-.6-.5a9,9,0,0,0-3.5-1,27.8,27.8,0,0,0-6.1-.1A20.5,20.5,0,0,0,119.5,3.8Z"/><path class="cls-1" d="M86.4,101.2l-3.1-.2-4.1-.4-2.8-.3L72,99.5a61.1,61.1,0,0,1-7.4-1.8,44.8,44.8,0,0,1-8-3.4,43,43,0,0,1-5.8-3.8,12.1,12.1,0,0,1-3.1-3.2,2.8,2.8,0,0,1,0-3.4A5.5,5.5,0,0,1,52,81.7a6.2,6.2,0,0,1,4.8,1.6,16.1,16.1,0,0,1,1.6,1.9,33,33,0,0,0,2.4,2.8,37.5,37.5,0,0,0,2.8,2.6,38.8,38.8,0,0,0,5.7,4A52.3,52.3,0,0,0,76,97.6c2.2.9,4.5,1.6,6.8,2.4l3.6,1.1ZM58.2,93.7l-.3-.4A18.9,18.9,0,0,1,55,90.9a10.9,10.9,0,0,1-2.9-4.6,3,3,0,0,0-1.1-1.5,1.6,1.6,0,0,0-2.1.1,1.4,1.4,0,0,0-.4,1.5,6,6,0,0,0,2,2.8,23.6,23.6,0,0,0,6.1,3.9A3.8,3.8,0,0,0,58.2,93.7Z"/><path class="cls-1" d="M64.2,117.7l1,.3a4.9,4.9,0,0,1,3,2.2,3.4,3.4,0,0,1-2.1,4.7,8.1,8.1,0,0,1-2.9.6H53.3c-.5,0-.3-.2-.3-.5q0-6.9,0-13.8c0-.4-.2-.9.1-1.2s.9-.1,1.4-.1h7.3a8.7,8.7,0,0,1,4.1.9,3.4,3.4,0,0,1,1.2,5.5,4.8,4.8,0,0,1-2.6,1.2ZM58,121.1c0,.7,0,1.5,0,2.2s0,.3.3.3h2.3c1.8-.3,2.5-1,2.5-2.5s-.9-2.3-2.6-2.5H58.4c-.4,0-.5.1-.5.4S58,120.4,58,121.1Zm0-6.8q0,1,0,2c0,.2,0,.3.3.3a12.1,12.1,0,0,0,2.8-.2,1.9,1.9,0,0,0,1.5-1.4,3.1,3.1,0,0,0,.1-1.4,2.1,2.1,0,0,0-1.9-1.7,17,17,0,0,0-2.4-.1c-.3,0-.3.1-.3.3S58,113.6,58,114.3Z"/><path class="cls-1" d="M121,125.5h-5.5a.5.5,0,0,1-.5-.3l-4.2-7.3c-.1-.2-.1-.3.2-.3H113c1.9-.2,2.9-1.3,2.7-3.1s-1.2-2.5-3.2-2.6h-1.8c-.3,0-.4.1-.4.3q0,6.3,0,12.5a1.1,1.1,0,0,0,0,.2c.1.4-.1.5-.6.5h-4c-.3,0-.4-.1-.4-.4q0-7.4,0-14.8c0-.3.1-.3.4-.3H114a9.1,9.1,0,0,1,5.3,1.5,3.8,3.8,0,0,1-1,6.7l-1.3.4c-.4.1-.4.2-.2.5l3.5,5.1Z"/><path class="cls-1" d="M178,125.5h-5.1a.5.5,0,0,1-.5-.3l-1.6-3.8c-.1-.3-.3-.4-.7-.4h-5.3c-.4,0-.6.1-.7.4l-1.5,3.8a.4.4,0,0,1-.5.3h-1.8c-.4,0-.4-.1-.3-.4l2.8-6.8,3.2-7.8a.7.7,0,0,1,.8-.5h4a.5.5,0,0,1,.6.3l5.9,13.3Zm-10.7-12.1h-.1l-2,5.2c-.1.2,0,.3.3.3h4c.3,0,.3-.1.2-.3l-1.3-3.1Z"/><path class="cls-1" d="M15.3,125.5H13a.5.5,0,0,1-.6-.3l-1.6-3.9c-.1-.3-.2-.4-.6-.4H4.8a.5.5,0,0,0-.6.4l-1.6,3.9a.5.5,0,0,1-.6.3H.3c-.3,0-.4-.1-.3-.3l2.8-6.7,3.2-7.9a.7.7,0,0,1,.8-.5h3.9a.6.6,0,0,1,.7.4l2.9,6.5,3.5,8.1c.2.4.1.5-.4.4H15.3ZM7.5,119H9.4c.3,0,.4-.1.3-.4l-2.2-5c0-.1,0-.2-.2-.2s-.1.1-.1.2l-2,5c-.1.3,0,.3.3.3Z"/><path class="cls-1" d="M142,109.7a9.3,9.3,0,0,1,7.5,3.1c.2.3.2.4-.1.6l-1.4.9c-.4.3-.6.2-.8-.2a5.4,5.4,0,0,0-2-1.9c-1.9-1-5.4-1-6.8,1.7a7.8,7.8,0,0,0-.1,7.2,5.1,5.1,0,0,0,5.5,2.7,5.2,5.2,0,0,0,3.4-1.9l.8-1.1c.1-.2.2-.2.4-.1l1.5.8c.3.2.4.3.2.6a8.1,8.1,0,0,1-5,3.3,12.7,12.7,0,0,1-8.4-.7,7.6,7.6,0,0,1-4.7-8c.5-3.8,4.2-6.7,8.6-7.1Z"/><path class="cls-1" d="M80.5,117.8c0-2.4,0-4.9,0-7.3,0-.4.1-.4.5-.4H91.6c.4,0,.5.1.5.4a6.6,6.6,0,0,0,0,1.2c0,.4-.1.4-.5.4H86.2c-.4,0-.5.1-.5.5s0,2.5,0,3.7.1.4.5.4h5.2c.3,0,.5.1.4.4a10.9,10.9,0,0,0,0,1.3c0,.3-.1.4-.4.4H86.2c-.4,0-.5.1-.5.4s0,2.7,0,4,.2.4.5.4H92c.4,0,.5.1.5.4a12.6,12.6,0,0,0,0,1.3c0,.2-.1.3-.3.3H80.9c-.4,0-.3-.2-.3-.4Q80.5,121.4,80.5,117.8Z"/><path class="cls-1" d="M29.2,117.7c0-2.4,0-4.9,0-7.3,0-.3.1-.4.4-.4h4.3c.4,0,.5.1.5.4,0,4.2,0,8.3,0,12.5,0,.4.1.6.6.6h5.7c.3,0,.5,0,.5.4a6.1,6.1,0,0,0,0,1.2c0,.4-.1.4-.5.4H29.7c-.4,0-.5-.1-.5-.5,0-2.4,0-4.9,0-7.3Z"/><path class="cls-1" d="M108.2,145.9h-3.6a.4.4,0,0,1-.4-.2l-2.7-4.7c-.2-.3-.1-.3.2-.3a5.4,5.4,0,0,0,1.7-.2,1.5,1.5,0,0,0,1.1-1c.4-1.5-.3-2.5-2.1-2.6s-1.4-.1-1.4,1.1,0,5,0,7.5c0,.3-.1.4-.5.4H98.1c-.4,0-.4-.1-.4-.4q0-4.8,0-9.6c0-.2,0-.4.3-.4,2,0,4.1-.1,6.1.1a5.4,5.4,0,0,1,2.6.8,2.6,2.6,0,0,1,1.2,2.8,2.7,2.7,0,0,1-2.1,2c-.7.2-.7.2-.3.8Z"/><path class="cls-1" d="M143.6,140.7H145c1.1-.1,1.8-.7,1.8-1.6a1.8,1.8,0,0,0-1.6-2.1h-1.7c-.3,0-.2.2-.3.4s0,2.7,0,4,0,2.9,0,4.3-.1.4-.5.4h-2.4c-.3,0-.5-.1-.5-.4,0-3.2,0-6.4,0-9.6,0-.2,0-.4.3-.4,2.1,0,4.1-.1,6.2.1a4.7,4.7,0,0,1,3,1.1c1.6,1.5,1,3.7-1.2,4.4-.2.1-.7.1-.7.3s.2.4.4.6l2.3,3.4c.2.3.1.4-.2.4h-3c-.2,0-.3,0-.5-.2Z"/><path class="cls-1" d="M86,145.9H82.5a.4.4,0,0,1-.4-.2l-2.9-5h1.3a1.9,1.9,0,0,0,1.8-1,1.9,1.9,0,0,0-.3-2.2,2.3,2.3,0,0,0-1.4-.6c-1.6-.2-1.7-.2-1.7,1.2s0,4.9,0,7.3c0,.4-.1.5-.6.5H76c-.3,0-.4-.1-.4-.4q0-4.8,0-9.6c0-.2,0-.4.3-.4,2,0,4-.1,6,.1a5.4,5.4,0,0,1,2.8.9,2.5,2.5,0,0,1,1.2,2.7,2.6,2.6,0,0,1-2.1,2c-.8.2-.8.2-.4.8Z"/><path class="cls-1" d="M165.6,142.9h-1.7a.4.4,0,0,0-.5.3l-1,2.4a.5.5,0,0,1-.6.3h-.9c-.3,0-.4-.1-.3-.3l1.3-3.1,2.7-6.5a.5.5,0,0,1,.6-.4h2.4a.6.6,0,0,1,.7.4l2.8,6.5,1.4,3.1c.1.3.1.3-.3.3h-2.9a.5.5,0,0,1-.5-.3l-1-2.3a.6.6,0,0,0-.7-.4Zm0-4.9h-.1l-1.4,3.4c-.1.2,0,.3.2.3h2.6c.2,0,.3-.1.2-.3Z"/><path class="cls-1" d="M57.5,142.9H55.9a.6.6,0,0,0-.7.4l-.9,2.3a.5.5,0,0,1-.6.3h-.9c-.3,0-.4-.1-.3-.3l2.1-5.2,1.8-4.5a.5.5,0,0,1,.5-.3h2.6a.5.5,0,0,1,.5.3l4.3,9.7c.1.3,0,.3-.3.3H61.3a.5.5,0,0,1-.5-.3l-1-2.4a.5.5,0,0,0-.6-.4Zm0-5h-.1L56,141.4c-.1.2,0,.3.2.2h2.5c.3,0,.3-.1.2-.3Z"/><path class="cls-1" d="M37.7,146.2H36.2a6.8,6.8,0,0,1-4.6-2.1c-2.6-2.8-1.1-7.2,2.8-8.3a7.9,7.9,0,0,1,6.1.4,5.6,5.6,0,0,1,1.5,1.3c.2.2.1.3-.1.4l-1,.6c-.2.1-.3.1-.4-.1a3.6,3.6,0,0,0-1.1-1.2,3.4,3.4,0,0,0-4.8,1.1,5,5,0,0,0,.2,5.1,3.6,3.6,0,0,0,5.5.5,3.8,3.8,0,0,0,.7-.9c.1-.2.2-.3.5-.1l.6.3c.6.3.6.3.2.8A6.1,6.1,0,0,1,37.7,146.2Z"/><path class="cls-1" d="M119.9,140.7c0-1.6,0-3.1,0-4.7s.1-.4.5-.4h6.9c.3,0,.4.1.4.4s0,1-1.1,1h-2.8c-.3,0-.4,0-.4.3s0,1.6,0,2.4.1.3.4.3H127c.3,0,.4.1.4.3s0,1-1.1,1h-2.6c-.3,0-.4.1-.4.4s0,1.6,0,2.4.1.4.5.4h3.5c.4,0,.5.1.5.4s0,.9-1.1.9h-6.2c-.7,0-.7,0-.7-.6S119.9,142.3,119.9,140.7Z"/><path class="cls-1" d="M135.2,88.3c-.2.3-.6.3-.9.3l-3.9.6-5.1.5c-3.2.2-6.3.2-9.5.1l-4-.2c-.2,0-.3-.1-.3-.2a79.5,79.5,0,0,0,9.8.4l5.7-.3q3.8-.3,7.6-1.1Z"/><path class="cls-1" d="M146.3,85.1a.2.2,0,0,1-.2.2c-1.6.5-3.2,1.2-4.9,1.6l-2.3.6-1.2.3c-.2,0-.4,0-.5.2h-.2c-.6-.2-1.2.3-1.9.1l4-1a60.1,60.1,0,0,0,6.7-2.1Z"/><path class="cls-1" d="M156.9,79.9c-.2.4-.6.5-.9.8L153.6,82,151,83.3l-1.3.7a2,2,0,0,1-1,.2l3.2-1.5c1.7-.8,3.3-1.7,4.8-2.7Z"/><path class="cls-1" d="M48.8,53.8a2.9,2.9,0,0,1,.1-1.6,26.1,26.1,0,0,1,.7-3.5,8.2,8.2,0,0,1,.5-1.9c.2-.4.1-.9.4-1.3s.1-.2.2-.3l-1.1,3.9A44.9,44.9,0,0,0,48.8,53.8Z"/><path class="cls-1" d="M105.3,88.4a9.4,9.4,0,0,1-3-.6l-2.9-1c-.2-.1-.4-.1-.4-.3l2.4.9Z"/><path class="cls-1" d="M163,75.9c-.4-.2-.5.2-.7.3s-.5.6-1,.6l2-1.7,1.1-.9a15.2,15.2,0,0,1-1.4,2v-.3c.1-.1.2-.1.1-.3H163C162.8,75.6,163,75.7,163,75.9Z"/><path class="cls-1" d="M51.2,71.6c.2,0,.4,0,.4-.3l1.7,3s0,.1,0,.2h0A27.2,27.2,0,0,1,51.2,71.6Z"/><path class="cls-1" d="M50.2,68.1c-.6-.4-.3-1-.6-1.5a9.5,9.5,0,0,1-.5-1.6.8.8,0,0,1,0-.7Z"/><path class="cls-1" d="M99,86.4c-.6.1-.9-.3-1.3-.4s-.9-.5-1.4-.6-.2-.2-.2-.3Z"/><path class="cls-1" d="M47.7,64.5a1.1,1.1,0,0,1,.5.8,8.5,8.5,0,0,0,.7,1.6.7.7,0,0,1,0,.5A15.7,15.7,0,0,1,47.7,64.5Z"/><path class="cls-1" d="M51.2,70.5c-.4-.2-.4-.5-.6-.8a4.7,4.7,0,0,1-.3-.6,1.2,1.2,0,0,1-.1-1Z"/><path class="cls-1" d="M89.6,80.6a.5.5,0,0,1-.5-.2A10.4,10.4,0,0,0,87.7,79c-.1-.1-.1-.2-.1-.4Z"/><path class="cls-1" d="M109.8,89.2a2.1,2.1,0,0,1-1.3-.1l-1.5-.2c-.2,0-.2-.2-.3-.3Z"/><path class="cls-1" d="M46.8,61.7c.2,0,.2.2.2.3a5.9,5.9,0,0,0,.4.9c.1.3,0,.6.2.9a.9.9,0,0,1,.1.7A13.8,13.8,0,0,1,46.8,61.7Z"/><path class="cls-1" d="M160.1,79.7c0-.1-.1-.1,0-.2a9.4,9.4,0,0,1,1.6-1.6A12,12,0,0,1,160.1,79.7Z"/><path class="cls-1" d="M94.6,84.2c-.7,0-1-.4-1.4-.7s-.5-.1-.4-.5Z"/><path class="cls-1" d="M49.2,64.1c-.3-.3-.2-.7-.3-1.1a7.6,7.6,0,0,1-.2-1.1.4.4,0,0,1,.1-.4Z"/><path class="cls-1" d="M48.6,56.9a5.6,5.6,0,0,1,0-2.1c0-.3-.1-.6.2-.8Z"/><path class="cls-1" d="M148.7,84.2a1.2,1.2,0,0,1-.8.5l-.8.3c-.2.1-.3.2-.5,0Z"/><path class="cls-1" d="M91.1,81.9a2.6,2.6,0,0,1-1.6-1.3Z"/><path class="cls-1" d="M92.6,82.9h-.4c-.4-.3-.9-.6-1.1-1.1Z"/><path class="cls-1" d="M158.8,78.6c0,.1,0,.1,0,.2a6.7,6.7,0,0,1-1.9,1.1Z"/><path class="cls-1" d="M85.8,76.8a2.3,2.3,0,0,1-1.1-1.4A8.5,8.5,0,0,1,85.8,76.8Z"/><path class="cls-1" d="M84.7,75.4h-.1a2.7,2.7,0,0,1-.9-1.3Z"/><path class="cls-1" d="M83.7,74.1h-.1c-.3-.4-.9-.8-.9-1.4Z"/><path class="cls-1" d="M50.2,69.9a3.1,3.1,0,0,1,.9,1.5A9.7,9.7,0,0,1,50.2,69.9Z"/><path class="cls-1" d="M161.9,77.5a2.2,2.2,0,0,1,1-1.3A8.2,8.2,0,0,1,161.9,77.5Z"/><path class="cls-1" d="M82.8,72.7c-.2,0-.3-.1-.4-.3a1.5,1.5,0,0,0-.4-.7c-.1-.1-.1-.2,0-.3Z"/><path class="cls-1" d="M48.9,67.4a2.8,2.8,0,0,1,.8,1.6A7,7,0,0,1,48.9,67.4Z"/><path class="cls-1" d="M48.7,60.3h-.1a7.9,7.9,0,0,1,0-2Z"/><path class="cls-1" d="M106.6,88.6c-.5.2-.9-.1-1.3-.3Z"/><path class="cls-1" d="M160.4,77.5a1,1,0,0,1-.9.7Z"/><path class="cls-1" d="M87.1,78.2c-.5-.1-.7-.3-.6-.7Z"/><path class="cls-1" d="M111.3,89.3a1.4,1.4,0,0,1-1.3-.2Z"/><path class="cls-1" d="M161.3,76.8a1.1,1.1,0,0,1-.9.7A3.2,3.2,0,0,1,161.3,76.8Z"/><path class="cls-1" d="M86.4,77.4c-.5,0-.6-.3-.6-.7A2.2,2.2,0,0,1,86.4,77.4Z"/><path class="cls-1" d="M96.1,85h-.7c-.3,0-.1-.3-.2-.4Z"/><path class="cls-1" d="M158.8,80.9c-.1-.4.2-.5.6-.6A1.9,1.9,0,0,1,158.8,80.9Z"/><path class="cls-1" d="M49.7,68.9a1.1,1.1,0,0,1,.5.9A3,3,0,0,1,49.7,68.9Z"/><path class="cls-1" d="M159.4,80.3c0-.4.3-.5.6-.7A2.4,2.4,0,0,1,159.4,80.3Z"/><path class="cls-1" d="M51.6,71.3c-.4-.2-.4-.5-.4-.9A2.6,2.6,0,0,1,51.6,71.3Z"/><path class="cls-1" d="M48.8,61.4c-.3-.3-.2-.6-.1-.9Z"/><path class="cls-1" d="M87.6,78.7c-.3-.1-.5-.2-.5-.5Z"/><path class="cls-1" d="M95.2,84.5c-.3,0-.5,0-.6-.3Z"/><path class="cls-1" d="M159.3,78.2c0,.3-.2.4-.5.3Z"/><path class="cls-1" d="M161.6,77.9c0-.2,0-.4.3-.3Z"/><path class="cls-1" d="M53.2,74.5h0Z"/><path class="cls-1" d="M146.4,85.1h0Z"/><path class="cls-1" d="M92.7,83h0Z"/><path class="cls-1" d="M163,75.9c0-.1-.2-.2,0-.3h.1c.1.1,0,.2-.1.3Z"/></g></g></svg>